# xmcd
#
# Track frame offsets: 
#        150
#        15001
#        23472
#        36837
#        51533
#        63287
#        72560
#        82984
#        93556
#        100867
#        116687
#        133635
#        138300
#        152584
#        166232
#        176668
#        187947
#        209014
#
# Disc length: 2930 seconds
#
# Revision: 0
# Processed by: cddbd v1.5.2PL0 Copyright (c) Steve Scherf et al.
# Submitted via: ExactAudioCopy v0.99pb3
#
DISCID=ec0b7012
DTITLE=NED - iNEDiti
DYEAR=2007
DGENRE=Ambient
TTITLE0=Inedito 1
TTITLE1=Inedito 2 - Effonde
TTITLE2=Inedito 3 - L'Aporia dell'Eterno Ritorno
TTITLE3=Inedito 4 - Da Camera
TTITLE4=Inedito 5 - Tutto Questo Spazio. Ad Arturo
TTITLE5=Inedito 6
TTITLE6=Inedito 7
TTITLE7=Inedito 8 - Lullaby of Nowhere. A Samuele
TTITLE8=Inedito 9 - BauBau. A Mirta
TTITLE9=Inedito 10 - Still
TTITLE10=Inedito 11 - Ersilia e Giulia
TTITLE11=Inedito 12
TTITLE12=Inedito 13
TTITLE13=Inedito 14 - Our First Rumba
TTITLE14=Inedito 15
TTITLE15=Inedito 16 - TraVersi
TTITLE16=Inedito 17 - Stefania e Sabrina
TTITLE17=Inedito 18 - Da Capo
EXTD=
EXTT0=
EXTT1=
EXTT2=
EXTT3=
EXTT4=
EXTT5=
EXTT6=
EXTT7=
EXTT8=
EXTT9=
EXTT10=
EXTT11=
EXTT12=
EXTT13=
EXTT14=
EXTT15=
EXTT16=
EXTT17=
PLAYORDER=
